inDegrees=no
num_controls=7
num_derivatives=13
num_iterations=139
num_multipliers=7
num_parameters=0
num_slacks=7
num_states=26
objective=5.204789
objective_accelerations=0.466383
objective_balance=0.077077
objective_effort=0.414548
objective_height=4.205581
objective_ligament=0.041201
solver_duration=1624.391691
status=Solve_Succeeded
success=true
DataType=double
version=3
OpenSimVersion=4.4-2022-07-23-0e9fedc
endheader
time	/jointset/ground_pelvis/pelvis_tilt/value	/jointset/ground_pelvis/pelvis_tx/value	/jointset/ground_pelvis/pelvis_ty/value	/jointset/hip_l/hip_flexion_l/value	/jointset/hip_l/hip_adduction_l/value	/jointset/hip_l/hip_rotation_l/value	/jointset/back/lumbar_extension/value	/jointset/patellofemoral_l/patellar_flexion_l/value	/jointset/knee_l/knee_flexion_l/value	/jointset/knee_l/knee_adduction_l/value	/jointset/knee_l/knee_rotation_l/value	/jointset/ankle_l/ankle_angle_l/value	/jointset/subtalar_l/subtalar_angle_l/value	/jointset/ground_pelvis/pelvis_tilt/speed	/jointset/ground_pelvis/pelvis_tx/speed	/jointset/ground_pelvis/pelvis_ty/speed	/jointset/hip_l/hip_flexion_l/speed	/jointset/hip_l/hip_adduction_l/speed	/jointset/hip_l/hip_rotation_l/speed	/jointset/back/lumbar_extension/speed	/jointset/patellofemoral_l/patellar_flexion_l/speed	/jointset/knee_l/knee_flexion_l/speed	/jointset/knee_l/knee_adduction_l/speed	/jointset/knee_l/knee_rotation_l/speed	/jointset/ankle_l/ankle_angle_l/speed	/jointset/subtalar_l/subtalar_angle_l/speed	/forceset/tau_hip_flexion_l	/forceset/tau_hip_adduction_l	/forceset/tau_hip_rotation_l	/forceset/tau_knee_flexion_l	/forceset/tau_ankle_angle_l	/forceset/tau_subtalar_angle_l	/forceset/tau_lumbar_extension	lambda_cid13_p0	lambda_cid13_p1	lambda_cid13_p2	lambda_cid13_p3	lambda_cid13_p4	lambda_cid13_p5	lambda_cid14_p0	/jointset/ground_pelvis/pelvis_tilt/accel	/jointset/ground_pelvis/pelvis_tx/accel	/jointset/ground_pelvis/pelvis_ty/accel	/jointset/hip_l/hip_flexion_l/accel	/jointset/hip_l/hip_adduction_l/accel	/jointset/hip_l/hip_rotation_l/accel	/jointset/back/lumbar_extension/accel	/jointset/patellofemoral_l/patellar_flexion_l/accel	/jointset/knee_l/knee_flexion_l/accel	/jointset/knee_l/knee_adduction_l/accel	/jointset/knee_l/knee_rotation_l/accel	/jointset/ankle_l/ankle_angle_l/accel	/jointset/subtalar_l/subtalar_angle_l/accel	gamma_cid13_p0	gamma_cid13_p1	gamma_cid13_p2	gamma_cid13_p3	gamma_cid13_p4	gamma_cid13_p5	gamma_cid14_p0
1.5	-0.4471364245992701	-0.07333198852236297	0.783218709202136	1.184331354667358	-0.308016438653078	-0.0898348683953078	-0.3367876050629227	0.5689004081379988	0.5689004081379138	-0.1744797344999728	0.1745036492159166	-0.01088115104186563	-0.05554589977655161	0.7461408720165755	0.2755949019609036	0.4017421581963416	-2.114669679493103	0.05921718630799307	-0.4899341599432048	0.5720692024785499	-1.427607024412884	-1.427607024412854	0.0005521421486167482	-0.0001488283589853941	-0.1245040396458107	0.04945645678810482	-0.2480521967139276	0.01986637565937977	-0.01804615949724762	-0.1744383535375628	0.144287929367032	0.04366976143514193	0.2226730452568826	6.967279939948718	-23.24411094687724	6.796771674332183	-4.04525670111699	-613.7783402307783	-61.62929607019426	-34.61204511393269	0.5275521678353249	0.5955458318895722	-0.1975412143266426	-1.404257915084671	0.4181618091082389	-0.2308969603703727	1.587706330338488	-0.8705852839598028	-0.8705852839597932	0.02175598396435379	-0.02938267751801616	0.08137974975570772	0.4222631393035357	-1.524416218935032e-08	7.538809240912013e-07	-8.135263828323171e-08	1.2285385013279e-07	1.144928276501887e-07	2.784327151618497e-08	1.003827248163566e-07
1.51	-0.439649123611181	-0.07054649937831432	0.7872255025293129	1.163116548323163	-0.3074040672475708	-0.09474620344965569	-0.3309888287455138	0.5545828501241711	0.5545828501242146	-0.1744740695279129	0.174502183138404	-0.01212199667269329	-0.05503093603351267	0.7512164562801632	0.2814717483733739	0.3995388648842736	-2.128000312221163	0.06325851046219369	-0.4922642617354661	0.587611103286273	-1.435702037677753	-1.435702037677747	0.0005783563907378585	-0.000146345954871483	-0.1236342490887731	0.05353974480889883	-0.2401949136714786	0.0188234993396324	-0.01807406511332355	-0.1737605108561501	0.1443786274597507	0.04271906053199999	0.2166440084122879	7.188526583474615	-22.97777994481901	6.877467297400305	-4.023870472971468	-610.0429815040519	-61.86518612704459	-35.25546165821992	0.4821349163933678	0.5791032445717834	-0.2433444284546836	-1.253769024432549	0.3972249849021607	-0.2236662363871722	1.526188299172611	-0.748599061517939	-0.7485990615215525	-0.00717901867104095	0.01483380493100665	0.09440838470379058	0.4017616844495441	-1.940637662001201e-08	7.932481537456788e-07	-8.037550160031233e-08	1.274775889242713e-07	1.224665365170018e-07	3.737430771446783e-08	1.028205607777569e-07
1.52	-0.4321141521082666	-0.06770317193041026	0.7912079387156076	1.141777175037169	-0.3067512611472555	-0.09967875941147629	-0.3250368821513832	0.5401904140349468	0.5401904140350859	-0.1744681890460394	0.1745006959060336	-0.01335321846274379	-0.05447505940006905	0.7556749749745711	0.2871625627319843	0.3968707300199057	-2.139583067859852	0.06730412526944549	-0.4941783414370521	0.6027032578212634	-1.442582639493317	-1.442582639493335	0.0005952441125800676	-0.0001530593285644208	-0.1225792714907037	0.05763903486898156	-0.2323376306289696	0.01778062301989074	-0.0181019707294295	-0.1730826681747315	0.1444693255524616	0.04176835962886227	0.2106149715677571	7.401457754622234	-22.71145453176122	6.959833229930645	-3.981519714245846	-606.4332578090479	-62.14165585382715	-35.87293254290061	0.4041390540002707	0.5583394211169139	-0.2905095247867679	-1.054682497210149	0.419019939718471	-0.1476925422352987	1.497757075792416	-0.6277029940986841	-0.6277029940986752	0.01989067990859689	-0.03122183307945299	0.1184171579611454	0.4254635471610846	-2.214113553058846e-08	8.268968122743812e-07	-8.376726608572516e-08	1.29701283525795e-07	1.32222769708573e-07	4.670354073016817e-08	1.051877494494651e-07
1.53	-0.4245376883432996	-0.06480393638845085	0.7951614014260653	1.120330755707584	-0.3060580225460529	-0.1046284736816437	-0.3189364569352551	0.5257352740189163	0.5257352740190967	-0.1744621958206256	0.1744991749721592	-0.0145730004494812	-0.05387815765570753	0.7595101003045124	0.2926458197282253	0.3937463267593687	-2.149394487003235	0.0713425151868286	-0.4956987671003848	0.6172912130444352	-1.448232777138726	-1.44823277713874	0.0006064386785204656	-0.0001493762183767301	-0.121346991375636	0.06174233868957566	-0.2243611476982751	0.01659105010819066	-0.01816898529428252	-0.1724242044349903	0.144597147026008	0.04072824313473999	0.2044454833303321	7.624914666973397	-22.40988035275334	7.038568724792138	-3.91475367607688	-602.7904718748571	-62.37307523464998	-36.46174194710855	0.3570501741045419	0.5375357870732933	-0.3346985019901414	-0.8984203762898416	0.3959739803614103	-0.1442380334403564	1.425728892380253	-0.5018029046198823	-0.501802904619306	-0.007661630579216509	0.01649628440698979	0.1301571826303336	0.4027928579859719	-2.335922295107434e-08	8.544694889819475e-07	-9.180098806249089e-08	1.293749311754887e-07	1.438729349951996e-07	5.581835786437456e-08	1.074798753758756e-07
1.54	-0.4169261031446741	-0.06185102488688827	0.799081361548857	1.098795412435922	-0.3053244549531529	-0.1095913962994585	-0.3126928693375273	0.5112300058754574	0.5112300058756616	-0.1744559697446485	0.1744977574496602	-0.01577955488619598	-0.05324021706144429	0.7626992616988931	0.2978977546526179	0.390170212486728	-2.157367856282109	0.07536992360874177	-0.4968200109660418	0.6313357341395618	-1.452608264978449	-1.452608264978458	0.0006418142238258217	-0.0001323770546298962	-0.1199337614865474	0.06584680484926685	-0.2163846647675201	0.01540147719650169	-0.0182359998590549	-0.1717657406952569	0.144724968499548	0.03968812664062718	0.1982759950929687	7.840520489056366	-22.10811036976611	7.118619530907109	-3.828011416530318	-599.2664252290919	-62.64447996961613	-37.02048182813496	0.2749462668891305	0.5120750067464737	-0.3808517272076559	-0.6870725243080941	0.4168236406244866	-0.06785618270014568	1.389070250183912	-0.3727730329612018	-0.3727730329612034	0.0247268757816333	-0.02855862236771292	0.1546071127643316	0.4256960149803022	-2.114056643923575e-08	8.744999416661911e-07	-1.094812000960362e-07	1.246175351948817e-07	1.600373567301329e-07	6.433337291419097e-08	1.104288873134717e-07
1.55	-0.4092858762621193	-0.05884681474908889	0.8029633514774021	1.077189506331261	-0.3045507582688388	-0.1145634882789591	-0.3063117448807982	0.4966872698360055	0.4966872698360572	-0.1744494427295801	0.1744965213009415	-0.01697115470640123	-0.05256132662591628	0.7652332762269611	0.3028989699528988	0.3861554680895914	-2.163494809671207	0.07936199536929378	-0.4975306511741253	0.6447835359009372	-1.455718945396868	-1.455718945396872	0.0006629761675850958	-0.000112085285120256	-0.1183574162026268	0.06992602570360389	-0.2082941959699455	0.01406462748598719	-0.01835563220077143	-0.1712358503397166	0.1450378492778727	0.03852295366965233	0.1919827363476018	8.108365522425688	-21.76322082224906	7.194132638376092	-3.7498009559674	-595.7884201317466	-62.85839956416935	-37.54932559770031	0.2257052353712773	0.4873712013543857	-0.4225929117656391	-0.5277185108105672	0.3891750328827678	-0.0623826590176333	1.306791944177663	-0.247239157289889	-0.2472391572891542	-0.009133236201605711	0.01782068294602682	0.1634695332787937	0.398125120235771	-1.496218322276264e-08	8.85840440584433e-07	-1.382758463254355e-07	1.147548063358851e-07	1.814029869815933e-07	7.215731164938419e-08	1.141347461769992e-07
1.56	-0.4016236939963248	-0.05579394717634784	0.806803032538816	1.055531888339823	-0.3037373856490954	-0.1195406296043745	-0.2997993110454351	0.4821200222701656	0.482120022270048	-0.1744426929130448	0.1744955875911871	-0.01814612681435087	-0.05184182598192952	0.7670903383391473	0.3076292416409562	0.3817084390605089	-2.167710233644296	0.08330511069433766	-0.4978298801484156	0.6575976098647662	-1.457510570255587	-1.457510570255586	0.0006863745163631304	-7.188926218668187e-05	-0.1166082190358007	0.07396884654095727	-0.2002037271723257	0.01272777777548306	-0.01847526454242879	-0.1707059599841795	0.1453507300561931	0.03735778069868662	0.1856894776022793	8.370388493163308	-21.41811716361708	7.270531477014964	-3.660941237061321	-592.4023478041298	-63.11040895263849	-38.04728394634468	0.1395557837138047	0.4578862843009717	-0.4673086535970021	-0.3047666411062392	0.4070323535228708	0.01442606405855239	1.262324690675203	-0.1089619210208978	-0.1089619210208975	0.02517415678545324	-0.02457777168303776	0.1891774893443879	0.4184160115833698	-9.637160806830929e-09	8.931163258764941e-07	-1.635173327887725e-07	1.054356927662108e-07	2.013708007266671e-07	7.995147591293971e-08	1.168811433811681e-07
